Coordinates
version=1
nRows=6
nColumns=63
inDegrees=yes

Units are S.I. units (second, meters, Newtons, ...)
If the header above contains a line with 'inDegrees', this indicates whether rotational values are in degrees (yes) or radians (no).

endheader
time	pelvis_tilt	pelvis_list	pelvis_rotation	pelvis_tx	pelvis_ty	pelvis_tz	hip_flexion_r	hip_adduction_r	hip_rotation_r	knee_angle_r	knee_angle_r_beta	ankle_angle_r	subtalar_angle_r	mtp_angle_r	hip_flexion_l	hip_adduction_l	hip_rotation_l	knee_angle_l	knee_angle_l_beta	ankle_angle_l	subtalar_angle_l	mtp_angle_l	L5_S1_Flex_Ext	L5_S1_Lat_Bending	L5_S1_axial_rotation	L4_L5_Flex_Ext	L4_L5_Lat_Bending	L4_L5_axial_rotation	L3_L4_Flex_Ext	L3_L4_Lat_Bending	L3_L4_axial_rotation	L2_L3_Flex_Ext	L2_L3_Lat_Bending	L2_L3_axial_rotation	L1_L2_Flex_Ext	L1_L2_Lat_Bending	L1_L2_axial_rotation	L1_T12_Flex_Ext	L1_T12_Lat_Bending	L1_T12_axial_rotation	Abs_r3	Abs_r2	Abs_r1	Abs_t1	Abs_t2	neck_flexion	neck_bending	neck_rotation	arm_flex_r	arm_add_r	arm_rot_r	elbow_flex_r	pro_sup_r	wrist_flex_r	wrist_dev_r	arm_flex_l	arm_add_l	arm_rot_l	elbow_flex_l	pro_sup_l	wrist_flex_l	wrist_dev_l
      5.55000000	     -4.30003685	      0.55617089	     98.06105476	      0.15716896	      0.96213782	      0.65064824	     -6.07789541	     -2.31448090	    -24.57066598	     12.85954912	      0.22444147	     32.14006560	     13.63983383	      0.00000000	     -6.83637848	      0.98009237	     16.95240458	      5.35297474	      0.09342703	     24.95644916	     -7.23227619	      0.00000000	     -0.47496485	      0.68826942	      0.74718880	     -0.88205721	      0.91539833	      0.79388811	     -0.78031974	      1.67345828	      0.79388811	     -0.54283732	      1.67345828	      0.65379020	     -0.44105236	      1.40351901	      0.60709090	     -0.27139491	      1.06612934	      0.56039160	     -3.39262640	      7.78584138	      4.15563998	      0.00000000	      0.00000000	      4.56895427	    -10.20347781	     -0.69782038	     -7.89613820	    -18.26944913	     20.40900100	     28.85369710	     85.89439767	    -15.74557756	     -1.57606711	     15.89927018	     -8.42562928	    -17.78173034	    149.68899327	     89.05039251	     13.55866317	     31.08558348
      5.57500000	     -4.31323518	      0.61159466	     98.10050856	      0.15705611	      0.96242180	      0.65083043	     -6.09674620	     -2.32832202	    -24.54361653	     12.91890210	      0.22547738	     32.14823823	     13.66965494	      0.00000000	     -6.86363727	      0.99265553	     17.11994292	      5.35630064	      0.09348508	     25.10378700	     -7.17602635	      0.00000000	     -0.48401259	      0.69571935	      0.78607492	     -0.89885978	      0.92530674	      0.83520460	     -0.79518429	      1.69157203	      0.83520460	     -0.55317799	      1.69157203	      0.68781555	     -0.44945409	      1.41871090	      0.63868587	     -0.27656480	      1.07766928	      0.58955619	     -3.45725354	      7.87011645	      4.37191286	      0.00000000	      0.00000000	      4.54713883	    -10.17748501	     -0.82021265	     -7.99523078	    -18.30806747	     20.34676406	     28.88533757	     85.90003681	    -15.83597938	     -1.66457627	     15.75051814	     -8.80697118	    -18.13251366	    149.70332885	     89.16247570	     13.64881838	     31.31021090
      5.60000000	     -4.32059351	      0.61663738	     98.15366812	      0.15698655	      0.96248335	      0.65091456	     -6.08440197	     -2.32791636	    -24.47257568	     12.93407953	      0.22574227	     32.18093465	     13.72117425	      0.00000000	     -6.85540432	      0.99759671	     17.14836510	      5.34285098	      0.09325034	     25.16609151	     -7.17700681	      0.00000000	     -0.48662528	      0.69426835	      0.78736274	     -0.90371180	      0.92337690	      0.83657291	     -0.79947667	      1.68804406	      0.83657291	     -0.55616403	      1.68804406	      0.68894239	     -0.45188023	      1.41575201	      0.63973222	     -0.27805768	      1.07542167	      0.59052205	     -3.47591570	      7.85370239	      4.37907533	      0.00000000	      0.00000000	      4.46780829	    -10.21713857	     -0.80644640	     -7.98950187	    -18.28288629	     20.33181856	     28.94775741	     85.91204984	    -15.86810426	     -1.70692663	     15.92165782	     -8.83028430	    -18.11881992	    149.67397558	     89.12299296	     13.70257413	     31.30215254
      5.62500000	     -4.36649418	      0.61344890	     98.23076117	      0.15686251	      0.96228840	      0.65076085	     -6.07016512	     -2.38141357	    -24.27220122	     13.01450368	      0.22714594	     32.31546082	     13.83939600	      0.00000000	     -6.87036301	      1.04186521	     17.15870445	      5.35815116	      0.09351738	     25.25421898	     -7.18599244	      0.00000000	     -0.48135392	      0.68955265	      0.75854456	     -0.89392237	      0.91710502	      0.80595359	     -0.79081636	      1.67657831	      0.80595359	     -0.55013940	      1.67657831	      0.66372649	     -0.44698525	      1.40613576	      0.61631745	     -0.27504563	      1.06811705	      0.56890842	     -3.43826293	      7.80035746	      4.21879726	      0.00000000	      0.00000000	      4.50700802	    -10.23797721	     -0.84868817	     -8.03184874	    -18.27532298	     20.28644433	     29.09031746	     85.95591050	    -15.92668102	     -1.80414732	     16.08727053	     -8.63409508	    -18.42020541	    149.69427553	     89.15899361	     13.70855638	     31.49422905
      5.65000000	     -4.40348095	      0.64482000	     98.31694118	      0.15685956	      0.96209688	      0.65072009	     -6.08979345	     -2.40439258	    -24.25064485	     13.10474656	      0.22872098	     32.31956534	     13.82095049	      0.00000000	     -6.90399189	      1.05656225	     17.10095127	      5.41744882	      0.09455232	     25.21214221	     -7.19621285	      0.00000000	     -0.48235011	      0.68167088	      0.75746796	     -0.89577239	      0.90662227	      0.80480971	     -0.79245300	      1.65741458	      0.80480971	     -0.55127794	      1.65741458	      0.66278447	     -0.44791031	      1.39006326	      0.61544272	     -0.27561485	      1.05590820	      0.56810097	     -3.44537862	      7.71119735	      4.21280957	      0.00000000	      0.00000000	      4.44489941	    -10.24078693	     -0.85841872	     -8.06636487	    -18.22209531	     20.26065609	     29.14460072	     85.96971743	    -15.93406183	     -1.84200645	     16.36985471	     -8.20759585	    -18.44850467	    149.71476369	     89.08115389	     13.78165146	     31.48206423
      5.67500000	     -4.44702570	      0.72062664	     98.17711149	      0.15666927	      0.96196915	      0.65105377	     -5.98688009	     -2.52551199	    -23.74574035	     13.49729598	      0.23557225	     32.25440766	     13.32879199	      0.00000000	     -6.85901111	      1.14681205	     16.38220125	      5.76716445	      0.10065601	     25.31113280	     -6.82966353	      0.00000000	     -0.49944899	      0.68056312	      0.84106094	     -0.92752673	      0.90514895	      0.89362725	     -0.82054475	      1.65472116	      0.89362725	     -0.57082025	      1.65472116	      0.73592832	     -0.46378834	      1.38780431	      0.68336201	     -0.28538515	      1.05419227	      0.63079570	     -3.56751421	      7.69866610	      4.67772863	      0.00000000	      0.00000000	      4.51526588	    -10.29383899	     -1.36676140	     -8.32140336	    -18.18623300	     19.43980314	     29.33698288	     86.13679721	    -15.93461574	     -2.08086056	     17.03005775	     -6.92934271	    -18.90274372	    149.72869257	     89.03576598	     16.22086964	     32.25187269
